<svg width="18" height="14" viewBox="0 0 18 14" fill="none" xmlns="http://www.w3.org/2000/svg">
<path d="M10.4083 12.7146C10.1916 12.4979 10.0876 12.2361 10.0963 11.9291C10.1057 11.6222 10.2187 11.3604 10.4354 11.1437L13.4958 8.0833H1.41665C1.1097 8.0833 0.85223 7.9793 0.64423 7.7713C0.436952 7.56403 0.333313 7.30692 0.333313 6.99997C0.333313 6.69303 0.436952 6.43555 0.64423 6.22755C0.85223 6.02028 1.1097 5.91664 1.41665 5.91664H13.4958L10.4083 2.82914C10.1916 2.61247 10.0833 2.355 10.0833 2.05672C10.0833 1.75917 10.1916 1.50205 10.4083 1.28539C10.625 1.06872 10.8825 0.960388 11.1807 0.960388C11.4783 0.960388 11.7354 1.06872 11.9521 1.28539L16.9083 6.24164C17.0166 6.34997 17.0936 6.46733 17.1391 6.59372C17.1838 6.72011 17.2062 6.85553 17.2062 6.99997C17.2062 7.14442 17.1838 7.27983 17.1391 7.40622C17.0936 7.53261 17.0166 7.64997 16.9083 7.7583L11.925 12.7416C11.7264 12.9402 11.4783 13.0396 11.1807 13.0396C10.8825 13.0396 10.625 12.9312 10.4083 12.7146Z" fill="#188268"/>
</svg>
